# Blender v2.79 (sub 0) OBJ File: ''
# www.blender.org
mtllib hex.mtl
o Plane_Plane.001
v 0.000000 0.000000 0.000000
v -1.000000 0.000000 0.000000
v 0.000000 0.000000 1.000000
v 1.000000 0.000000 0.000000
v 0.000000 0.000000 -1.000000
v -0.750000 0.000000 0.750000
v 0.750000 0.000000 0.750000
v -0.750000 0.000000 -0.750000
v 0.750000 0.000000 -0.750000
vn 0.0000 1.0000 0.0000
usemtl None
s off
f 1/0/1 2/0/1 6/0/1 3/0/1
f 1/0/1 3/0/1 7/0/1 4/0/1
f 1/0/1 4/0/1 9/0/1 5/0/1
f 1/0/1 5/0/1 8/0/1 2/0/1
f 1/0/1 8/0/1 2/0/1