# Blender v2.79 (sub 0) OBJ File: ''
# www.blender.org
mtllib hex2.mtl
o Plane_Plane.001
v -0.432617 0.000000 0.432617
v -0.453125 0.000000 0.216797
v -0.646484 0.000000 0.402344
v -0.402344 0.000000 0.646484
v -0.216797 0.000000 0.453125
v -0.226562 0.000000 0.226562
v -0.679688 0.000000 0.203125
v -0.593750 0.000000 0.593750
v -0.203125 0.000000 0.679688
v 0.432617 0.000000 0.432617
v 0.216797 0.000000 0.453125
v 0.402344 0.000000 0.646484
v 0.646484 0.000000 0.402344
v 0.453125 0.000000 0.216797
v 0.226562 0.000000 0.226562
v 0.203125 0.000000 0.679688
v 0.593750 0.000000 0.593750
v 0.679688 0.000000 0.203125
v 0.432617 0.000000 -0.432617
v 0.453125 0.000000 -0.216797
v 0.646484 0.000000 -0.402344
v 0.402344 0.000000 -0.646484
v 0.216797 0.000000 -0.453125
v 0.226562 0.000000 -0.226562
v 0.679688 0.000000 -0.203125
v 0.593750 0.000000 -0.593750
v 0.203125 0.000000 -0.679688
v -0.432617 0.000000 -0.432617
v -0.216797 0.000000 -0.453125
v -0.402344 0.000000 -0.646484
v -0.646484 0.000000 -0.402344
v -0.453125 0.000000 -0.216797
v -0.226562 0.000000 -0.226562
v -0.203125 0.000000 -0.679688
v -0.593750 0.000000 -0.593750
v -0.679688 0.000000 -0.203125
v 0.000000 0.000000 0.230469
v 0.000000 0.000000 0.460938
v 0.000000 0.000000 0.691406
v 0.230469 0.000000 0.000000
v 0.460938 0.000000 0.000000
v 0.691406 0.000000 0.000000
v 0.000000 0.000000 -0.230469
v 0.000000 0.000000 -0.460938
v 0.000000 0.000000 -0.691406
v -0.230469 0.000000 0.000000
v -0.460938 0.000000 0.000000
v -0.691406 0.000000 0.000000
v -0.781250 0.000000 -0.531250
v -0.859375 0.000000 -0.367188
v -0.906250 0.000000 -0.187500
v -0.906250 0.000000 0.187500
v -0.859375 0.000000 0.367188
v -0.781250 0.000000 0.531250
v -0.531250 0.000000 0.781250
v -0.367188 0.000000 0.859375
v -0.187500 0.000000 0.906250
v 0.187500 0.000000 0.906250
v 0.367188 0.000000 0.859375
v 0.531250 0.000000 0.781250
v 0.781250 0.000000 0.531250
v 0.859375 0.000000 0.367188
v 0.906250 0.000000 0.187500
v 0.906250 0.000000 -0.187500
v 0.859375 0.000000 -0.367188
v 0.781250 0.000000 -0.531250
v 0.531250 0.000000 -0.781250
v 0.367188 0.000000 -0.859375
v 0.187500 0.000000 -0.906250
v -0.187500 0.000000 -0.906250
v -0.367188 0.000000 -0.859375
v -0.531250 0.000000 -0.781250
v 0.000000 0.000000 0.000000
v -0.921875 0.000000 0.000000
v 0.000000 0.000000 0.921875
v 0.921875 0.000000 0.000000
v 0.000000 0.000000 -0.921875
v -0.671875 0.000000 0.671875
v 0.671875 0.000000 0.671875
v -0.671875 0.000000 -0.671875
v 0.671875 0.000000 -0.671875
vn 0.0000 1.0000 0.0000
usemtl None
s off
f 1//1 5//1 6//1 2//1
f 2//1 6//1 46//1 47//1
f 5//1 38//1 37//1 6//1
f 6//1 37//1 73//1 46//1
f 1//1 2//1 7//1 3//1
f 3//1 7//1 52//1 53//1
f 2//1 47//1 48//1 7//1
f 7//1 48//1 74//1 52//1
f 1//1 3//1 8//1 4//1
f 4//1 8//1 55//1 56//1
f 3//1 53//1 54//1 8//1
f 8//1 54//1 78//1 55//1
f 1//1 4//1 9//1 5//1
f 5//1 9//1 39//1 38//1
f 4//1 56//1 57//1 9//1
f 9//1 57//1 75//1 39//1
f 10//1 14//1 15//1 11//1
f 11//1 15//1 37//1 38//1
f 14//1 41//1 40//1 15//1
f 15//1 40//1 73//1 37//1
f 10//1 11//1 16//1 12//1
f 12//1 16//1 58//1 59//1
f 11//1 38//1 39//1 16//1
f 16//1 39//1 75//1 58//1
f 10//1 12//1 17//1 13//1
f 13//1 17//1 61//1 62//1
f 12//1 59//1 60//1 17//1
f 17//1 60//1 79//1 61//1
f 10//1 13//1 18//1 14//1
f 14//1 18//1 42//1 41//1
f 13//1 62//1 63//1 18//1
f 18//1 63//1 76//1 42//1
f 19//1 23//1 24//1 20//1
f 20//1 24//1 40//1 41//1
f 23//1 44//1 43//1 24//1
f 24//1 43//1 73//1 40//1
f 19//1 20//1 25//1 21//1
f 21//1 25//1 64//1 65//1
f 20//1 41//1 42//1 25//1
f 25//1 42//1 76//1 64//1
f 19//1 21//1 26//1 22//1
f 22//1 26//1 67//1 68//1
f 21//1 65//1 66//1 26//1
f 26//1 66//1 81//1 67//1
f 19//1 22//1 27//1 23//1
f 23//1 27//1 45//1 44//1
f 22//1 68//1 69//1 27//1
f 27//1 69//1 77//1 45//1
f 28//1 32//1 33//1 29//1
f 29//1 33//1 43//1 44//1
f 32//1 47//1 46//1 33//1
f 33//1 46//1 73//1 43//1
f 28//1 29//1 34//1 30//1
f 30//1 34//1 70//1 71//1
f 29//1 44//1 45//1 34//1
f 34//1 45//1 77//1 70//1
f 28//1 30//1 35//1 31//1
f 31//1 35//1 49//1 50//1
f 30//1 71//1 72//1 35//1
f 35//1 72//1 80//1 49//1
f 28//1 31//1 36//1 32//1
f 32//1 36//1 48//1 47//1
f 31//1 50//1 51//1 36//1
f 36//1 51//1 74//1 48//1
