# Blender v2.79 (sub 0) OBJ File: ''
# www.blender.org
mtllib hex3.mtl
o Plane_Plane.001
v -0.437500 0.000000 0.437500
v 0.437500 0.000000 0.437500
v 0.437500 0.000000 -0.437500
v -0.437500 0.000000 -0.437500
v 0.000000 0.000000 0.468750
v 0.468750 0.000000 0.000000
v 0.000000 0.000000 -0.468750
v -0.468750 0.000000 0.000000
v -0.875000 0.000000 -0.375000
v -0.875000 0.000000 0.375000
v -0.375000 0.000000 0.875000
v 0.375000 0.000000 0.875000
v 0.875000 0.000000 0.375000
v 0.875000 0.000000 -0.375000
v 0.375000 0.000000 -0.875000
v -0.375000 0.000000 -0.875000
v 0.000000 0.000000 0.000000
v -0.937500 0.000000 0.000000
v 0.000000 0.000000 0.937500
v 0.937500 0.000000 0.000000
v 0.000000 0.000000 -0.937500
v -0.687500 0.000000 0.687500
v 0.687500 0.000000 0.687500
v -0.687500 0.000000 -0.687500
v 0.687500 0.000000 -0.687500
vn 0.0000 1.0000 0.0000
usemtl None
s off
f 1//1 5//1 17//1 8//1
f 1//1 8//1 18//1 10//1
f 1//1 10//1 22//1 11//1
f 1//1 11//1 19//1 5//1
f 2//1 6//1 17//1 5//1
f 2//1 5//1 19//1 12//1
f 2//1 12//1 23//1 13//1
f 2//1 13//1 20//1 6//1
f 3//1 7//1 17//1 6//1
f 3//1 6//1 20//1 14//1
f 3//1 14//1 25//1 15//1
f 3//1 15//1 21//1 7//1
f 4//1 8//1 17//1 7//1
f 4//1 7//1 21//1 16//1
f 4//1 16//1 24//1 9//1
f 4//1 9//1 18//1 8//1
