# Blender v2.80 (sub 74) OBJ File: ''
# www.blender.org
mtllib monkey.mtl
o Suzanne
v -0.484034 0.020155 0.576947
v 0.484034 0.020155 0.576947
v 0.103827 0.159850 0.640278
v -0.100956 0.158959 0.641930
v 0.393837 0.378491 0.790033
v 0.156250 0.437500 0.648438
v -0.278507 0.462918 0.598653
v -0.393098 0.377848 0.791020
v 0.464863 0.413575 0.544369
v -0.546875 0.437500 0.578125
v 0.633369 0.242106 0.566534
v -0.633263 0.242030 0.566494
v -0.318941 0.114315 0.809523
v 0.320532 0.114372 0.808700
v 0.000000 -0.187500 0.796875
v 0.161855 0.425610 -0.886247
v 0.174571 -0.359035 -0.421084
v 0.223095 -0.182572 0.537520
v -0.356728 -0.927976 0.573527
v 0.561106 -0.083400 0.569124
v 0.801472 0.401529 0.631966
v -0.278309 0.403248 0.761608
v 0.246989 0.560878 0.790464
v 0.000000 -0.195312 0.750000
v 0.000000 -0.140625 0.742188
v -0.590524 -0.058461 0.582604
v -0.816663 0.389995 0.639416
v -0.248244 0.648821 0.854577
v -0.004469 0.371789 0.809708
v -0.091305 -0.118257 0.792388
v 0.342333 -0.952106 0.579292
v 0.115383 -0.174545 0.780086
v -0.101798 -0.288732 0.770108
v 0.094934 -0.794266 0.702949
v -0.080825 -0.840205 0.698286
v -0.412973 0.388532 0.752534
v -0.553093 0.260929 0.693617
v -0.414005 0.087832 0.718920
v 0.198150 0.304100 0.760369
v -0.196071 0.294624 0.761091
v 0.324415 0.390499 0.806824
v 0.222894 0.132351 0.756619
v 0.414528 0.069190 0.697299
v 0.560609 0.249865 0.677448
v -0.219586 0.131121 0.753801
v -0.002492 0.430919 0.632235
v -0.251173 0.772215 0.702398
v 0.250629 0.772171 0.701714
v -0.457458 0.528564 0.474708
v -0.801044 0.082684 0.349172
v -0.237773 -0.217792 0.507440
v 0.789853 0.107807 0.400528
v -0.345166 0.964651 0.184289
v -0.011619 -0.075160 -0.779360
v -0.844518 0.402894 -0.455613
v -0.214052 -0.410230 0.341908
v -0.286777 -0.948688 0.400826
v 0.321192 -0.910612 0.408725
v 0.169166 -0.447829 0.294486
v 0.187004 0.931783 -0.498892
v -0.718625 0.694284 -0.380830
v 0.465608 0.900982 0.152219
v 0.460237 0.527298 0.472638
v -0.754293 0.408766 0.324865
v 0.755597 0.411716 0.316887
v 0.868110 0.478144 -0.366392
v -0.412197 -0.155198 -0.470120
v 0.676861 -0.079389 -0.134441
v -1.188433 0.031706 -0.444984
v -1.144385 0.493109 -0.352791
v 1.211712 0.314025 -0.444590
v 0.861481 0.344903 -0.192084
v 0.821158 0.044305 -0.320186
v -1.210577 0.316817 -0.444218
v -0.983413 0.301681 -0.354455
v -0.830086 0.045466 -0.321420
v -0.708888 -0.071127 -0.139283
v -0.851212 0.363598 -0.191879
v 0.985268 0.297194 -0.359371
v -1.305483 0.466542 -0.505400
v 1.291283 0.466559 -0.467281
v 1.188219 0.021499 -0.461148
v -0.771686 -0.120624 -0.323445
v 0.696472 -0.061959 -0.374711
vt 0.898598 0.617974
vt 0.862836 0.612569
vt 0.920246 0.524366
vt 0.861242 0.797997
vt 0.897038 0.794500
vt 0.914742 0.888926
vt 0.819696 0.677517
vt 0.821329 0.731220
vt 0.949695 0.747972
vt 0.965038 0.841671
vt 0.968392 0.593858
vt 0.611847 0.159877
vt 0.660792 0.225157
vt 0.539963 0.179759
vt 0.377394 0.233168
vt 0.420733 0.159776
vt 0.500449 0.191834
vt 0.696892 0.314498
vt 0.649161 0.292264
vt 0.722985 0.252887
vt 0.434535 0.380359
vt 0.422114 0.408454
vt 0.340548 0.318412
vt 0.522683 0.361282
vt 0.610070 0.357705
vt 0.622043 0.403752
vt 0.579590 0.310661
vt 0.439452 0.332078
vt 0.390655 0.296384
vt 0.581249 0.274621
vt 0.459133 0.274213
vt 0.549484 0.061931
vt 0.512024 0.075456
vt 0.487210 0.061933
vt 0.525748 0.079745
vt 0.501157 0.164332
vt 0.519132 0.185382
vt 0.519841 0.200843
vt 0.517577 0.190607
vt 0.619747 0.263868
vt 0.419150 0.266113
vt 0.413540 0.324355
vt 0.608315 0.326362
vt 0.524536 0.433700
vt 0.768416 0.307366
vt 0.645399 0.068937
vt 0.558356 0.053724
vt 0.539877 0.021327
vt 0.394896 0.019215
vt 0.483995 0.049530
vt 0.399481 0.082116
vt 0.145989 0.246575
vt 0.129433 0.363048
vt 0.000144 0.259113
vt 0.871997 0.327847
vt 0.847168 0.217268
vt 0.262147 0.316597
vt 0.825956 0.455045
vt 0.763149 0.431455
vt 0.786595 0.369001
vt 0.279331 0.457858
vt 0.217614 0.477521
vt 0.249207 0.387964
vt 0.822052 0.212701
vt 0.203277 0.217482
vt 0.813977 0.048821
vt 0.794601 0.172901
vt 0.854987 0.141773
vt 0.963770 0.173241
vt 0.196622 0.155241
vt 0.170926 0.194638
vt 0.200481 0.102779
vt 0.107997 0.046395
vt 0.197818 0.864697
vt 0.109547 0.741725
vt 0.195111 0.800886
vt 0.560548 0.806371
vt 0.543004 0.733946
vt 0.665640 0.759342
vt 0.434950 0.738485
vt 0.407241 0.671070
vt 0.271952 0.812762
vt 0.343481 0.856604
vt 0.323771 0.732922
vt 0.356774 0.669174
vt 0.295780 0.246821
vt 0.235548 0.169661
vt 0.491468 0.817831
vt 0.403013 0.833180
vt 0.216926 0.734553
vt 0.044323 0.542309
vt 0.106750 0.582589
vt 0.269185 0.610136
vt 0.836111 0.536446
vt 0.831228 0.873128
vt 0.918898 0.699697
vt 0.461186 0.311213
vt 0.692106 0.388274
vt 0.734010 0.317916
vt 0.350292 0.396229
vt 0.232648 0.003484
vt 0.923249 0.061717
vt 0.011829 0.155367
vt 0.927090 0.385070
vt 0.966681 0.256668
vt 0.604030 0.830760
vt 0.658213 0.585676
vt 0.488530 0.604411
vt 0.049526 0.748824
vt 0.742304 0.597357
vn 0.6385 -0.1235 0.7597
vn -0.6384 -0.1263 0.7593
vn -0.5709 0.2145 0.7925
vn 0.5671 0.2154 0.7950
vn 0.6537 0.4667 0.5958
vn -0.1146 0.9320 0.3439
vn 0.6635 0.6896 0.2903
vn 0.2655 -0.9525 0.1494
vn -0.2884 -0.8481 0.4445
vn 0.4781 -0.5552 0.6806
vn -0.5095 0.6635 0.5478
vn -0.2178 0.3811 0.8985
vn 0.1866 -0.1493 0.9710
vn -0.1997 -0.3254 0.9242
vn -0.2017 -0.3251 0.9239
vn 0.2462 -0.1020 0.9638
vn -0.3218 -0.2770 0.9054
vn 0.4405 -0.0860 0.8936
vn -0.0066 0.0785 0.9969
vn -0.0321 -0.7826 0.6217
vn 0.3777 -0.1266 0.9172
vn -0.3727 -0.1338 0.9183
vn -1.0000 0.0000 0.0000
vn 0.4777 0.6670 0.5717
vn -0.3831 -0.3461 0.8564
vn 0.5153 0.3837 0.7663
vn 0.4549 -0.2747 0.8471
vn -0.4584 -0.2434 0.8548
vn 0.0176 0.4031 -0.9150
vn -0.3136 -0.0515 0.9482
vn -0.8073 0.5625 0.1784
vn 0.8115 0.5516 0.1928
vn 0.9873 0.0724 -0.1414
vn 0.0271 -0.2312 -0.9725
vn -0.1310 -0.0903 -0.9873
vn 0.0638 -0.9678 -0.2434
vn 0.9523 0.3018 -0.0446
vn -0.9202 0.0824 -0.3826
vn -0.2765 0.9252 -0.2599
vn 0.8160 0.5468 0.1875
vn -0.7614 0.6134 0.2097
vn -0.3734 0.4429 -0.8151
vn 0.3767 0.4419 -0.8141
vn 0.9669 0.1835 0.1771
vn -0.8925 0.4319 0.1296
vn 0.5272 -0.8437 -0.1007
vn 0.5920 -0.1760 -0.7865
vn -0.3857 -0.2759 -0.8804
vn -0.5164 -0.3801 -0.7673
vn -0.6711 -0.1269 0.7305
vn 0.4203 -0.0849 0.9034
vn 0.3026 0.6680 0.6799
vn -0.3668 -0.3161 0.8750
vn 0.9132 -0.4043 -0.0514
vn -0.8718 -0.2333 0.4308
vn -0.5639 -0.3433 0.7511
vn -0.9447 -0.3187 -0.0779
vn 0.6990 -0.3577 0.6192
vn 0.3526 -0.0844 0.9319
vn -0.3227 -0.0714 0.9438
vn 0.3563 -0.0813 0.9308
vn 0.1194 0.9816 0.1493
vn 0.2575 -0.0646 -0.9641
vn 0.6570 -0.4124 0.6311
vn -0.6562 -0.4116 0.6324
vn -0.3176 -0.9353 0.1561
vn 0.3127 -0.9367 0.1572
vn -0.4981 0.0686 0.8644
vn 0.1357 0.9746 0.1784
vn -0.7359 0.2888 0.6124
vn 0.9039 0.1616 0.3960
vn -0.8505 0.1882 0.4911
vn 0.6920 -0.2222 0.6869
vn -0.7815 -0.4490 0.4333
vn 0.3502 0.3576 0.8657
vn 0.7096 0.5539 0.4355
vn -0.2202 -0.0404 0.9746
vn -0.3928 -0.0601 0.9177
vn -0.1874 -0.1465 0.9713
vn 0.0145 -0.1262 0.9919
vn -0.2428 -0.0083 0.9700
vn 0.1085 -0.5021 0.8580
vn 0.4335 0.8676 -0.2437
vn 0.0094 0.7592 0.6508
vn -0.1167 -0.2167 -0.9692
vn 0.0233 -0.1310 0.9911
vn -0.8886 -0.0052 0.4586
vn 0.0374 -0.6214 0.7826
vn 0.0274 -0.6990 0.7146
vn 0.5999 0.3420 0.7233
vn -0.4434 0.8635 -0.2404
vn -0.2371 -0.9538 -0.1848
vn -0.9745 0.1259 -0.1857
vn -0.4330 -0.8893 -0.1472
vn -0.0352 -0.9939 0.1049
vn 0.9307 0.1256 -0.3436
vn -0.9481 0.1319 -0.2892
vn 0.2845 -0.8026 -0.5243
vn 0.4043 -0.6029 -0.6878
vn -0.2404 -0.8177 -0.5230
vn -0.3002 0.5202 -0.7996
vn 0.4718 -0.3373 -0.8146
vn -0.3915 -0.0603 -0.9182
vn 0.0788 0.9968 0.0134
vn 0.0946 0.6636 0.7421
vn 0.4821 0.5172 -0.7072
vn 0.5699 0.7954 -0.2062
vn 0.5481 0.5399 0.6388
vn -0.5423 0.5580 0.6282
vn -0.3937 -0.9158 0.0791
vn -0.1548 0.5749 0.8034
vn 0.9705 0.1592 0.1810
vn -0.9737 0.1522 0.1693
vn -0.9206 0.3889 0.0346
vn -0.9557 -0.2507 0.1545
vn 0.6080 -0.7360 0.2976
vn 0.5026 -0.4304 0.7498
vn 0.0114 -0.9666 0.2559
vn 0.4961 -0.8680 -0.0225
vn -0.5939 -0.0483 0.8031
vn -0.2047 0.0592 -0.9770
vn 0.8397 -0.3043 0.4497
vn -0.4571 -0.3774 -0.8054
vn -0.2466 0.7334 0.6335
vn -0.3691 -0.0312 0.9289
vn 0.1570 -0.9859 -0.0587
vn -0.4117 -0.8351 0.3648
vn 0.0538 -0.1672 0.9845
vn 0.5742 0.4495 -0.6843
vn 0.1651 0.7805 0.6029
vn 0.0723 -0.2347 -0.9694
usemtl None
s off
f 5/1/1 14/2/1 11/3/1
f 13/4/2 8/5/2 12/6/2
f 14/2/3 5/1/3 3/7/3
f 8/5/4 13/4/4 4/8/4
f 8/5/5 4/8/5 7/9/5
f 8/5/6 7/9/6 10/10/6
f 11/3/7 9/11/7 5/1/7
f 18/12/8 20/13/8 32/14/8
f 26/15/9 51/16/9 30/17/9
f 21/18/10 44/19/10 52/20/10
f 28/21/11 47/22/11 27/23/11
f 29/24/12 23/25/12 48/26/12
f 23/25/13 29/24/13 39/27/13
f 22/28/14 29/24/14 28/21/14
f 27/23/15 22/28/15 28/21/15
f 21/18/16 23/25/16 44/19/16
f 26/15/17 37/29/17 27/23/17
f 32/14/18 20/13/18 42/30/18
f 42/30/19 45/31/19 32/14/19
f 31/32/20 35/33/20 19/34/20
f 32/14/21 34/35/21 31/32/21
f 35/33/22 33/36/22 19/34/22
f 15/37/23 25/38/23 24/39/23
f 15/37/24 25/38/24 30/17/24
f 25/38/25 32/14/25 45/31/25
f 30/17/26 25/38/26 45/31/26
f 20/13/27 44/19/27 43/40/27
f 37/29/28 26/15/28 38/41/28
f 22/28/29 37/29/29 36/42/29
f 39/27/30 41/43/30 23/25/30
f 29/24/31 48/26/31 46/44/31
f 47/22/32 29/24/32 46/44/32
f 52/20/33 65/45/33 21/18/33
f 59/46/34 58/47/34 57/48/34
f 59/49/35 57/50/35 56/51/35
f 31/32/36 57/50/36 58/47/36
f 31/32/37 58/47/37 59/46/37
f 57/50/38 19/34/38 56/51/38
f 61/52/39 53/53/39 60/54/39
f 62/55/40 65/45/40 66/56/40
f 64/57/41 53/53/41 61/52/41
f 46/58/42 48/59/42 63/60/42
f 47/61/43 46/62/43 49/63/43
f 72/64/44 66/56/44 65/45/44
f 61/52/45 78/65/45 64/57/45
f 17/66/46 68/67/46 59/46/46
f 84/68/47 16/69/47 66/56/47
f 83/70/48 55/71/48 67/72/48
f 55/71/49 54/73/49 67/72/49
f 70/74/50 80/75/50 74/76/50
f 71/77/51 82/78/51 81/79/51
f 82/78/52 73/80/52 68/81/52
f 75/82/53 70/74/53 74/76/53
f 52/20/54 68/67/54 72/64/54
f 78/83/55 76/84/55 77/85/55
f 78/83/56 70/74/56 76/84/56
f 50/86/57 78/65/57 77/87/57
f 73/80/58 79/88/58 72/89/58
f 82/78/59 79/88/59 73/80/59
f 75/82/60 69/90/60 76/84/60
f 79/88/61 82/78/61 71/77/61
f 78/91/62 55/92/62 80/75/62
f 69/90/63 80/75/63 83/93/63
f 11/3/64 14/2/64 2/94/64
f 1/95/65 13/4/65 12/6/65
f 2/94/66 14/2/66 3/7/66
f 4/8/67 13/4/67 1/95/67
f 5/1/68 6/96/68 3/7/68
f 5/1/69 9/11/69 6/96/69
f 12/6/70 8/5/70 10/10/70
f 18/12/71 32/14/71 31/32/71
f 19/34/72 33/36/72 51/16/72
f 20/13/73 52/20/73 44/19/73
f 27/23/74 50/86/74 26/15/74
f 48/26/75 23/25/75 21/18/75
f 29/24/76 47/22/76 28/21/76
f 27/23/77 37/29/77 22/28/77
f 30/17/78 45/31/78 26/15/78
f 29/24/79 22/28/79 40/97/79
f 35/33/80 34/35/80 32/14/80 33/36/80
f 45/31/81 29/24/81 40/97/81
f 34/35/82 35/33/82 31/32/82
f 63/98/83 48/26/83 21/18/83 65/99/83
f 15/37/84 32/14/84 25/38/84
f 30/17/85 32/14/85 15/37/85
f 33/36/86 32/14/86 30/17/86
f 33/36/87 30/17/87 51/16/87
f 42/30/88 20/13/88 43/40/88
f 38/41/89 26/15/89 45/31/89
f 23/25/90 41/43/90 44/19/90
f 49/100/91 64/57/91 27/23/91 47/22/91
f 17/101/92 59/49/92 56/51/92 67/72/92
f 50/86/93 27/23/93 64/57/93
f 51/16/94 26/15/94 50/86/94
f 57/50/95 31/32/95 19/34/95
f 18/12/96 31/32/96 59/46/96
f 56/51/97 19/34/97 51/16/97
f 18/12/98 52/20/98 20/13/98
f 84/68/99 17/66/99 54/102/99
f 67/72/100 54/73/100 17/101/100
f 60/54/101 16/103/101 55/71/101 61/52/101
f 16/69/102 84/68/102 54/102/102
f 55/71/103 16/103/103 54/73/103
f 53/104/104 62/55/104 60/105/104
f 53/104/105 46/58/105 63/60/105 62/55/105
f 16/69/106 60/105/106 66/56/106
f 60/105/107 62/55/107 66/56/107
f 62/55/108 63/60/108 65/45/108
f 64/57/109 49/63/109 53/53/109
f 77/87/110 67/72/110 51/16/110 50/86/110
f 49/63/111 46/62/111 53/53/111
f 52/20/112 72/64/112 65/45/112
f 64/57/113 78/65/113 50/86/113
f 61/52/114 55/71/114 78/65/114
f 67/72/115 56/51/115 51/16/115
f 59/46/116 68/67/116 52/20/116 18/12/116
f 81/106/117 72/89/117 79/88/117 71/77/117
f 67/72/118 77/87/118 83/70/118
f 17/66/119 84/68/119 68/67/119
f 74/76/120 80/75/120 69/90/120
f 66/107/121 81/79/121 82/78/121 84/108/121
f 72/89/122 68/81/122 73/80/122
f 76/84/123 70/74/123 75/82/123
f 69/90/124 77/85/124 76/84/124
f 75/82/125 74/76/125 69/90/125
f 82/78/126 68/81/126 84/108/126
f 83/93/127 77/85/127 69/90/127
f 45/31/128 42/30/128 39/27/128 29/24/128
f 70/109/129 78/91/129 80/75/129
f 72/110/130 81/79/130 66/107/130
f 83/93/131 80/75/131 55/92/131
